<?xml version="1.0" encoding="utf-8"?><svg viewBox="0 0 512 512" xmlns="http://www.w3.org/2000/svg" xmlns:xlink="http://www.w3.org/1999/xlink"><style>:root>svg{display:none}:root>svg:target{display:block}</style><svg fill="none" viewBox="0 0 24 24" id="champayne" xmlns="http://www.w3.org/2000/svg"><path d="M13 13a1 1 0 10-2 0v7H8a1 1 0 100 2h8a1 1 0 100-2h-3v-7z" fill="#4296FF"/><path fill-rule="evenodd" clip-rule="evenodd" d="M5 2a1 1 0 00-1 1c0 2.186.868 4.283 2.414 5.828l4.879 4.88a1 1 0 001.414 0l4.879-4.88A8.243 8.243 0 0020 3a1 1 0 00-1-1H5zm2.828 5.414A6.243 6.243 0 016.081 4h11.838a6.243 6.243 0 01-1.747 3.414L12 11.586 7.828 7.414z" fill="#152C70"/></svg><svg fill="none" viewBox="0 0 24 24" id="chat-messagem" xmlns="http://www.w3.org/2000/svg"><path fill-rule="evenodd" clip-rule="evenodd" d="M14.652 2.718a9.654 9.654 0 00-5.304 0l-.126.036a9.417 9.417 0 00-6.347 12.032l.547 1.643c.025.073.027.15.009.224l-.901 3.605a1 1 0 001.213 1.212l3.604-.9a.402.402 0 01.224.008l1.643.547a9.417 9.417 0 0012.032-6.347l.036-.126a9.655 9.655 0 00-6.63-11.934zM9.897 4.64a7.654 7.654 0 019.462 9.462l-.036.126a7.417 7.417 0 01-9.477 4.999l-.863-.288c-1.088-.635-1.78-1.119-2.265-1.555h-.001a6.037 6.037 0 01-.236-.225c-.493-.496-.747-.95-1.072-1.532-.105-.188-.218-.39-.35-.612l-.287-.862a7.417 7.417 0 015-9.477l.125-.036z" fill="#152C70"/><path d="M7.5 13.5a1.5 1.5 0 100-3 1.5 1.5 0 000 3zM13.5 12a1.5 1.5 0 11-3 0 1.5 1.5 0 013 0zM16.5 13.5a1.5 1.5 0 100-3 1.5 1.5 0 000 3z" fill="#4296FF"/></svg><svg fill="none" viewBox="0 0 512 512" id="cil_arsow" xmlns="http://www.w3.org/2000/svg"><path d="M256.25 16.042c-132.548 0-240 107.451-240 240s107.452 240 240 240 240-107.452 240-240-107.45-240-240-240zM403.328 403.12a207.256 207.256 0 01-278.27 13.055 207.252 207.252 0 11278.27-13.055z" fill="#000"/><path d="M239.637 164.987l75.053 75.054H128.137v32H314.69l-75.053 75.054 22.627 22.627 113.681-113.681L262.264 142.36l-22.627 22.627z" fill="#000"/></svg><svg fill="none" viewBox="0 0 64 64" id="emojione" xmlns="http://www.w3.org/2000/svg"><path d="M53.213 10.786c-11.715-11.715-30.71-11.715-42.425 0-11.717 11.717-11.717 30.711 0 42.426 11.715 11.717 30.71 11.717 42.425 0 11.715-11.715 11.715-30.709 0-42.426zM45 44.999H22.874l7.345-7.563L17 24.044l6.956-7.045 13.458 13.283L45 22.866v22.133" fill="#000"/></svg></svg>