<svg width="512" height="512" viewBox="0 0 512 512" fill="none" xmlns="http://www.w3.org/2000/svg">
<path d="M256.25 16.042C123.702 16.042 16.25 123.493 16.25 256.042C16.25 388.591 123.702 496.042 256.25 496.042C388.798 496.042 496.25 388.59 496.25 256.042C496.25 123.494 388.8 16.042 256.25 16.042V16.042ZM403.328 403.12C366.857 439.48 318.156 460.959 266.714 463.373C215.271 465.786 164.773 448.961 125.058 416.175C85.3435 383.39 59.2577 336.992 51.8835 286.024C44.5094 235.056 56.3752 183.168 85.1689 140.47C113.963 97.7726 157.621 67.3245 207.638 55.0588C257.655 42.793 310.448 49.5882 355.728 74.1203C401.009 98.6524 435.534 139.164 452.576 187.761C469.619 236.359 467.958 289.56 447.917 337C437.472 361.717 422.329 384.173 403.328 403.12V403.12Z" fill="black"/>
<path d="M239.637 164.987L314.69 240.041H128.137V272.041H314.69L239.637 347.095L262.264 369.722L375.945 256.041L262.264 142.36L239.637 164.987V164.987Z" fill="black"/>
</svg>
